<svg width="1900" height="1297" viewBox="0 0 1900 1297" fill="none" xmlns="http://www.w3.org/2000/svg">
<path d="M249 1093.5C397 1068.3 663.667 1193.33 778.5 1259C891 1311.5 905 1306 1022.5 1259C1146 1209.6 1311 1066 1445 1159C1579 1252 1880.5 1358.5 1899 1159C1917.5 959.5 1352.5 148 891 68.5C429.5 -11 74.5 426 17 693C-40.5 960 64 1125 249 1093.5Z" fill="#7B5E57"/>
<path d="M487 364C537.258 364 578 323.258 578 273C578 222.742 537.258 182 487 182C436.742 182 396 222.742 396 273C396 323.258 436.742 364 487 364Z" fill="#474961"/>
<path d="M487 350C529.526 350 564 315.526 564 273C564 230.474 529.526 196 487 196C444.474 196 410 230.474 410 273C410 315.526 444.474 350 487 350Z" fill="white"/>
<path d="M493 267H549C550.105 267 551 267.895 551 269V275C551 276.105 550.105 277 549 277H485C483.895 277 483 276.105 483 275V269.5V206C483 204.895 483.895 204 485 204H491C492.105 204 493 204.895 493 206V267Z" fill="#FF647C"/>
<g clip-path="url(#clip0)">
<path d="M1365.61 852.302L1365.81 852.345C1374.07 854.101 1379.35 862.224 1377.59 870.487C1377.58 870.553 1377.56 870.619 1377.55 870.685L1342.25 1026.6C1340.38 1034.87 1332.2 1040.1 1323.91 1038.34L1323.71 1038.3C1315.45 1036.54 1310.17 1028.42 1311.93 1020.15C1311.94 1020.09 1311.96 1020.02 1311.97 1019.96L1347.27 864.041C1349.14 855.77 1357.31 850.539 1365.61 852.302Z" fill="#E1E5F0"/>
<path d="M1645.91 852.302L1645.71 852.345C1637.45 854.101 1632.17 862.224 1633.93 870.487C1633.94 870.553 1633.96 870.619 1633.97 870.685L1669.27 1026.6C1671.14 1034.87 1679.31 1040.1 1687.61 1038.34L1687.81 1038.3C1696.07 1036.54 1701.35 1028.42 1699.59 1020.15C1699.58 1020.09 1699.56 1020.02 1699.55 1019.96L1664.25 864.041C1662.38 855.77 1654.2 850.539 1645.91 852.302Z" fill="#E1E5F0"/>
<path d="M1378 768.454C1385.11 764.336 1393.34 762 1402.05 762H1610.01C1618.3 762 1626.14 764.112 1633 767.858V638.499L1633.01 638.501C1633 638.002 1633 637.501 1633 637C1633 586.742 1673.74 546 1724 546C1774.26 546 1815 586.742 1815 637C1815 652.928 1810.91 667.901 1803.72 680.924V680.924L1748.36 828.185C1733.71 867.178 1696.41 893 1654.76 893H1636.09H1375.27H1356.24C1314.59 893 1277.29 867.178 1262.64 828.185L1207.28 680.924H1207.28C1200.09 667.901 1196 652.928 1196 637C1196 586.742 1236.74 546 1287 546C1337.26 546 1378 586.742 1378 637C1378 637.7 1377.99 638.399 1377.98 639.095L1378 639.091V768.454V768.454Z" fill="#D8DEED"/>
<path d="M1667 566.059C1646.27 582.739 1633 608.32 1633 637C1633 637.501 1633 638.002 1633.01 638.501L1633 638.499V767.858C1626.14 764.112 1618.3 762 1610.01 762H1402.05C1393.34 762 1385.11 764.336 1378 768.454V639.091L1377.98 639.095C1377.99 638.399 1378 637.7 1378 637C1378 608.784 1365.16 583.567 1345 566.875V512C1345 456.772 1389.77 412 1445 412H1567C1622.23 412 1667 456.772 1667 512V566.059ZM1227.64 568.027C1235.09 566.052 1242.92 565 1251 565C1301.26 565 1342 605.742 1342 656C1342 656.981 1341.98 657.959 1341.95 658.932L1342 658.925V891.984C1306.27 886.854 1275.6 862.67 1262.64 828.185L1207.28 680.924L1207.28 680.924C1200.09 667.901 1196 652.928 1196 637C1196 609.425 1208.26 584.715 1227.64 568.027ZM1783.36 568.027C1802.74 584.715 1815 609.425 1815 637C1815 652.928 1810.91 667.901 1803.72 680.924V680.924L1748.36 828.185C1735.4 862.67 1704.73 886.854 1669 891.984V657.935L1669.02 657.939C1669.01 657.294 1669 656.648 1669 656C1669 605.742 1709.74 565 1760 565C1768.08 565 1775.91 566.052 1783.36 568.027Z" fill="#F2F6FB"/>
</g>
<path d="M654.804 32H1168.45C1175.41 32 1181.04 37.6369 1181.04 44.5903V977.531C1181.04 984.484 1175.41 990.121 1168.45 990.121H654.804C647.851 990.121 642.215 984.484 642.215 977.531V44.5903C642.215 37.6369 647.851 32 654.804 32Z" fill="#F2F6FB"/>
<path d="M691.314 230.927H1134.46V388.305H691.314V230.927ZM691.314 73.5479H1134.46V209.523H691.314V73.5479ZM691.314 409.709H1134.46V524.28H691.314V409.709ZM1013.6 253.589C1011.52 253.589 1009.83 255.28 1009.83 257.366V374.456C1009.83 376.542 1011.52 378.233 1013.6 378.233H1023.68C1025.76 378.233 1027.45 376.542 1027.45 374.456V257.366C1027.45 255.28 1025.76 253.589 1023.68 253.589H1013.6ZM823.503 321.419C822.113 321.419 820.985 322.546 820.985 323.937V349.118C820.985 364.415 833.386 376.816 848.682 376.816H866.307C881.604 376.816 894.004 364.415 894.004 349.118V323.937C894.004 322.546 892.877 321.419 891.486 321.419H823.503ZM751.743 334.009C750.353 334.009 749.225 335.137 749.225 336.527V355.413C749.225 367.234 758.807 376.816 770.627 376.816H784.476C796.296 376.816 805.878 367.234 805.878 355.413V336.527C805.878 335.137 804.751 334.009 803.36 334.009H751.743ZM963.246 253.589C961.16 253.589 959.469 255.28 959.469 257.366V374.456C959.469 376.542 961.16 378.233 963.246 378.233H973.318C975.404 378.233 977.095 376.542 977.095 374.456V257.366C977.095 255.28 975.404 253.589 973.318 253.589H963.246ZM1038.78 253.589C1036.7 253.589 1035.01 255.28 1035.01 257.366V374.456C1035.01 376.542 1036.7 378.233 1038.78 378.233H1048.85C1050.94 378.233 1052.63 376.542 1052.63 374.456V257.366C1052.63 255.28 1050.94 253.589 1048.85 253.589H1038.78ZM988.425 253.589C986.339 253.589 984.648 255.28 984.648 257.366V374.456C984.648 376.542 986.339 378.233 988.425 378.233H998.497C1000.58 378.233 1002.27 376.542 1002.27 374.456V257.366C1002.27 255.28 1000.58 253.589 998.497 253.589H988.425ZM1056.82 257.016C1054.8 257.556 1053.61 259.627 1054.15 261.642L1084.45 374.742C1084.99 376.757 1087.06 377.953 1089.08 377.413L1098.8 374.806C1100.82 374.266 1102.01 372.195 1101.47 370.18L1071.17 257.08C1070.63 255.065 1068.56 253.869 1066.55 254.409L1056.82 257.016Z" fill="#E1E5F0"/>
<path d="M1138.24 209.523H685.019V230.927H1138.24V209.523Z" fill="#F2F6FB"/>
<path d="M1138.24 388.305H685.019V409.709H1138.24V388.305Z" fill="#F2F6FB"/>
<path d="M752.467 366.902C756.249 372.95 762.968 376.974 770.627 376.974H784.476C792.135 376.974 798.854 372.95 802.636 366.902H827.316C832.396 373.053 840.081 376.974 848.682 376.974H866.307C874.908 376.974 882.593 373.053 887.673 366.902H959.469V374.613C959.469 376.699 961.16 378.39 963.246 378.39H973.318C975.404 378.39 977.095 376.699 977.095 374.613V366.902H984.648V374.613C984.648 376.699 986.339 378.39 988.425 378.39H998.497C1000.58 378.39 1002.27 376.699 1002.27 374.613V366.902H1009.83V374.613C1009.83 376.699 1011.52 378.39 1013.6 378.39H1023.68C1025.76 378.39 1027.45 376.699 1027.45 374.613V366.902H1035.01V374.613C1035.01 376.699 1036.7 378.39 1038.78 378.39H1048.85C1050.94 378.39 1052.63 376.699 1052.63 374.613V366.902H1082.31L1084.45 374.899C1084.99 376.914 1087.06 378.11 1089.08 377.57L1098.8 374.963C1100.82 374.423 1102.01 372.352 1101.47 370.337L1100.55 366.902H1134.46V388.305H695.091V366.902H752.467ZM719.011 990.121H747.966V1040.48C747.966 1041.87 746.839 1043 745.448 1043H721.528C720.138 1043 719.011 1041.87 719.011 1040.48V990.121ZM1074.03 990.121H1102.99V1040.48C1102.99 1041.87 1101.86 1043 1100.47 1043H1076.55C1075.16 1043 1074.03 1041.87 1074.03 1040.48V990.121ZM914.147 572.123V925.91H1126.91C1127.6 925.91 1128.17 925.347 1128.17 924.651V573.382C1128.17 572.687 1127.6 572.123 1126.91 572.123H914.147ZM909.112 925.91V572.123H698.867C698.172 572.123 697.608 572.687 697.608 573.382V924.651C697.608 925.347 698.172 925.91 698.867 925.91H909.112ZM936.808 699.285C940.98 699.285 944.362 702.667 944.362 706.839V791.194C944.362 795.366 940.98 798.748 936.808 798.748C932.637 798.748 929.255 795.366 929.255 791.194V706.839C929.255 702.667 932.637 699.285 936.808 699.285ZM886.451 699.285C890.622 699.285 894.004 702.667 894.004 706.839V791.194C894.004 795.366 890.622 798.748 886.451 798.748C882.279 798.748 878.897 795.366 878.897 791.194V706.839C878.897 702.667 882.279 699.285 886.451 699.285ZM698.867 565.828H1126.91C1131.08 565.828 1134.46 569.21 1134.46 573.382V924.651C1134.46 928.823 1131.08 932.205 1126.91 932.205H698.867C694.696 932.205 691.314 928.823 691.314 924.651V573.382C691.314 569.21 694.696 565.828 698.867 565.828ZM695.091 188.12H1134.46V209.523H695.091V188.12ZM695.091 500.359H1134.46V521.762H695.091V500.359Z" fill="#D8DEED"/>
<path d="M987.517 189.917H1085.22C1087.58 189.917 1089.49 191.829 1089.49 194.188V202.729C1089.49 205.088 1087.58 207 1085.22 207H987.517C985.158 207 983.246 205.088 983.246 202.729V194.188C983.246 191.829 985.158 189.917 987.517 189.917ZM982.178 121.586H1079.88C1082.24 121.586 1084.15 123.499 1084.15 125.857V134.398C1084.15 136.757 1082.24 138.669 1079.88 138.669H982.178C979.819 138.669 977.907 136.757 977.907 134.398V125.857C977.907 123.499 979.819 121.586 982.178 121.586ZM970.966 155.752H1068.67C1071.03 155.752 1072.94 157.664 1072.94 160.023V168.564C1072.94 170.923 1071.03 172.835 1068.67 172.835H970.966C968.607 172.835 966.695 170.923 966.695 168.564V160.023C966.695 157.664 968.607 155.752 970.966 155.752Z" fill="#474BFF"/>
<path d="M997.127 172.835H1094.83C1097.19 172.835 1099.1 174.747 1099.1 177.105V185.647C1099.1 188.005 1097.19 189.917 1094.83 189.917H997.127C994.768 189.917 992.856 188.005 992.856 185.647V177.105C992.856 174.747 994.768 172.835 997.127 172.835ZM1000.33 138.669H1098.03C1100.39 138.669 1102.31 140.581 1102.31 142.94V151.481C1102.31 153.84 1100.39 155.752 1098.03 155.752H1000.33C997.972 155.752 996.059 153.84 996.059 151.481V142.94C996.059 140.581 997.972 138.669 1000.33 138.669Z" fill="#474961"/>
<path d="M987.25 127.992H1084.15V132.797H987.25C985.923 132.797 984.847 131.721 984.847 130.395C984.847 129.068 985.923 127.992 987.25 127.992ZM996.059 145.075H1091.09V149.88H996.059V145.075ZM977.907 162.158H1072.94V166.962H977.907V162.158ZM992.856 179.241H1087.89V184.045H992.856V179.241ZM994.458 196.323H1089.49V201.128H994.458V196.323Z" fill="#F2F6FB"/>
<path d="M880.643 504.32H787.408C782.771 504.32 779.011 508.054 779.011 512.66C779.011 517.266 782.771 521 787.408 521H880.643C885.28 521 889.04 517.266 889.04 512.66C889.04 508.054 885.28 504.32 880.643 504.32Z" fill="#474961"/>
<path d="M875.431 470.959H782.196C777.559 470.959 773.799 474.693 773.799 479.299C773.799 483.905 777.559 487.639 782.196 487.639H875.431C880.068 487.639 883.828 483.905 883.828 479.299C883.828 474.693 880.068 470.959 875.431 470.959Z" fill="#474961"/>
<path d="M892.804 487.639H799.569C794.932 487.639 791.172 491.373 791.172 495.979C791.172 500.586 794.932 504.32 799.569 504.32H892.804C897.441 504.32 901.201 500.586 901.201 495.979C901.201 491.373 897.441 487.639 892.804 487.639Z" fill="#DE3190"/>
<path d="M884.117 454.278H790.883C786.245 454.278 782.486 458.012 782.486 462.618C782.486 467.225 786.245 470.959 790.883 470.959H884.117C888.755 470.959 892.514 467.225 892.514 462.618C892.514 458.012 888.755 454.278 884.117 454.278Z" fill="#DE3190"/>
<path d="M778.145 110.947H822.423C823.954 110.947 825.265 112.041 825.537 113.545L843.32 212H765.806H735.75V114.105C735.75 112.361 737.166 110.947 738.914 110.947H778.145Z" fill="#474961"/>
<path opacity="0.176986" d="M739.011 110.947H778.243H739.011ZM765.855 212H735.847V114.375C735.856 114.472 735.869 114.568 735.886 114.666L753.467 212H765.855Z" fill="#444444"/>
<path d="M748.741 118.983H816.7C818.243 118.983 819.561 120.094 819.819 121.612L833.531 202.207H759.959L745.628 122.7C745.318 120.983 746.461 119.341 748.181 119.033C748.366 118.999 748.554 118.983 748.741 118.983Z" fill="#A339FF"/>
<path d="M757.606 189.09C763.008 182.596 774.431 179.348 791.877 179.348C806.295 179.348 819.44 182.596 831.312 189.09L833.531 202.207H759.959L757.606 189.09Z" fill="#FFCB3D"/>
<path d="M781.188 168L781.912 181.542C781.938 181.835 782.089 182.116 782.351 182.22C783.495 182.794 785.107 183.412 787.065 183.663C790.602 184.155 793.516 183.31 795.143 182.662C795.47 182.55 795.691 182.193 795.662 181.858L795.158 174.164C797.967 174.949 797.801 174.863 798.039 174.92C800.757 175.366 803.027 175.083 803.442 174.961C804.949 174.701 806.441 173.289 807.686 171.001C809.374 167.949 810.709 163.303 811.165 157.837C811.267 157.059 811.243 156.292 811.218 155.525L810.721 147.92C810.615 146.221 810.086 144.558 809.109 143.105C808.712 142.456 808.326 141.934 807.863 141.505C804.18 137.526 798.872 137.34 795.788 137.648C795.089 137.7 794.463 137.785 793.942 137.887C793.563 137.963 792.214 138.25 790.265 138.547C789.207 138.724 788.355 138.799 787.847 138.885C781.52 139.692 778.94 139.155 775.892 141.115C775.321 141.461 774.024 142.336 772.959 143.911C769.958 148.364 771.239 153.67 771.592 155.248C772.778 159.97 775.848 162.665 776.807 163.809C777.965 165.212 779.862 166.888 781.188 168Z" fill="#DB9E75"/>
<path d="M777.82 156.589C777.908 157.773 778.284 158.947 778.886 159.913C779.427 160.809 780.13 161.508 780.943 162.042C781.494 162.404 781.961 162.62 782.542 162.834C782.87 162.955 783.234 162.788 783.355 162.46C783.476 162.133 783.308 161.77 782.98 161.649C781.73 161.189 780.742 160.539 779.965 159.254C779.475 158.467 779.165 157.507 779.086 156.542C779.09 156.542 779.094 156.542 779.098 156.542C779.073 155.531 779.299 154.499 779.857 153.555C781.024 151.563 783.428 150.304 785.483 150.796C786.638 151.073 787.464 151.883 787.554 151.959C788.801 153.278 789.182 154.756 789.182 154.756L789.323 155.492C792.184 151.889 795.889 147.263 798.633 143.754C800.43 144.09 803.367 144.327 806.594 143.328C807.389 143.074 808.088 142.66 808.72 142.271C808.455 141.895 808.182 141.569 807.876 141.285C804.192 137.306 798.884 137.12 795.8 137.428C795.102 137.48 794.475 137.565 793.955 137.667C793.575 137.743 792.226 138.03 790.277 138.327C789.219 138.504 788.367 138.579 787.859 138.665C781.532 139.472 778.952 138.935 775.904 140.895C775.333 141.241 774.036 142.116 772.972 143.691C769.97 148.144 771.251 153.45 771.604 155.028C771.784 155.745 772.007 156.415 772.26 157.04C774.199 156.786 776.028 156.665 777.82 156.589ZM809.534 153.521C809.937 153.397 810.01 152.813 809.695 152.53C809.295 152.209 808.607 151.914 807.785 151.986C806.101 152.133 804.398 153.481 806.334 153.845C807.47 154.056 808.769 153.765 809.534 153.521ZM800.768 154.732C801.165 154.61 801.236 154.032 800.886 153.755C800.492 153.437 799.815 153.145 798.966 153.219C797.309 153.363 795.638 154.74 797.539 155.058C798.742 155.305 800.016 154.974 800.768 154.732ZM806.68 156.992C806.764 157.765 806.96 159.036 807.416 159.469C808.185 160.115 809.015 157.785 808.38 156.4C808.133 155.818 807.826 155.743 807.483 155.806C806.97 155.925 806.651 156.445 806.68 156.992ZM798.871 157.411C798.896 158.192 799.008 159.473 799.481 159.984C800.186 160.706 801.183 158.407 800.63 156.981C800.408 156.401 800.099 156.29 799.759 156.32C799.249 156.364 798.865 156.858 798.871 157.411ZM803.217 165.309C803.676 165.377 805.017 165.621 805.379 165.048C805.565 164.815 805.788 164.073 805.788 164.073C805.788 164.073 804.734 164.273 803.418 164.316C802.679 164.344 802.175 164.244 802.034 164.509C801.999 164.584 802.049 164.688 802.056 164.76C802.213 165.144 802.924 165.262 803.217 165.309ZM805.247 154.572C805.232 154.399 805.078 154.27 804.904 154.285C804.73 154.3 804.601 154.454 804.617 154.627L804.84 157.133L805.884 161.548C805.9 161.609 805.827 161.716 805.752 161.736L805.613 161.759C804.903 161.874 804.465 161.931 803.701 161.998C803.527 162.013 803.398 162.167 803.413 162.34C803.428 162.514 803.582 162.643 803.756 162.627C804.538 162.559 804.99 162.499 805.715 162.382C805.784 162.371 805.784 162.371 805.88 162.354C806.306 162.247 806.607 161.807 806.497 161.395L805.463 157.033L805.247 154.572ZM796.038 174.41L789.372 172.442L795.625 181.669L796.038 174.41Z" fill="#482D1F"/>
<path d="M414.068 679.13C408.59 684.988 400.49 688.183 391.9 687.051C377.796 685.209 367.755 672.237 369.618 657.948C371.482 643.659 384.358 633.68 398.575 635.553C401.854 635.982 404.913 637.012 407.654 638.52L405.816 626.88H473.951C473.617 628.337 471.483 646.478 467.55 681.302C467.388 682.728 467.032 683.975 466.45 685.157C466.176 685.692 465.933 686.113 465.481 686.841C464.367 688.606 462.671 689.835 460.702 690.74C459.024 691.484 457.7 691.838 451.762 692.09C449.052 692.168 427.905 691.899 425.161 692.09C419.208 691.97 415.994 686.813 415.817 686.148C415.285 685.013 414.705 683.619 414.577 682.355L414.068 679.13ZM393.313 675.819C401.416 676.901 408.809 671.069 409.855 663.039C410.901 655.008 405.129 647.464 397.139 646.413C389.149 645.361 381.643 651.163 380.597 659.193C379.603 667.482 385.323 674.768 393.313 675.819Z" fill="#FFCB3D"/>
<path d="M439.883 629.241C458.699 629.241 473.951 628.184 473.951 626.88C473.951 625.575 458.699 624.518 439.883 624.518C421.068 624.518 405.815 625.575 405.815 626.88C405.815 628.184 421.068 629.241 439.883 629.241Z" fill="#474961"/>
<g clip-path="url(#clip1)">
<path d="M1496.54 1028L1442.5 1028C1440.01 1028 1438 1030.01 1438 1032.5C1438 1034.99 1440.01 1037 1442.5 1037L1498.5 1037C1499.52 1037 1500.46 1036.66 1501.22 1036.09L1501.23 1036.09L1600.75 961.514C1602.57 960.146 1603.02 957.454 1601.55 955.728L1601.26 955.222C1600.38 954.107 1598.99 953.483 1597.59 953.558C1596.79 953.544 1596.08 953.832 1595.37 954.32L1496.54 1028ZM1237.5 1028C1235.01 1028 1233 1030.01 1233 1032.5C1233 1034.99 1235.01 1037 1237.5 1037L1397.5 1037C1399.99 1037 1402 1034.99 1402 1032.5C1402 1030.01 1399.99 1028 1397.5 1028L1237.5 1028Z" fill="#A339FF"/>
<path d="M1236.08 1028.85C1236.55 1028.68 1237.06 1028.59 1237.58 1028.59L1397.58 1028.59C1398.02 1028.59 1398.45 1028.65 1398.85 1028.77L1400.03 965.746L1324.83 965.747C1315.59 971.786 1309.58 976.149 1306.8 978.834C1302.63 982.862 1298.17 986.584 1293.31 989.8C1281.57 997.496 1275.47 997.39 1257.62 1005.78C1252.79 1008 1248.14 1010.51 1243.59 1013.34C1239.04 1016.16 1237.48 1019.33 1236.2 1024.11C1235.99 1024.9 1235.97 1025.7 1235.86 1026.4C1235.84 1027.48 1235.92 1028.26 1236.08 1028.85ZM1597.51 954.15L1561.49 902.92L1500.5 947.563L1498.59 953.53C1491.17 977.938 1487.14 990.803 1486.52 992.126C1485.77 993.673 1484.99 995.102 1484.18 996.493C1478.71 998.61 1472.5 1000.67 1462.98 1005.22C1458.15 1007.43 1453.5 1009.95 1448.95 1012.77C1444.4 1015.59 1442.85 1018.77 1441.56 1023.55C1441.35 1024.34 1441.33 1025.14 1441.22 1025.84C1441.2 1026.86 1441.36 1027.82 1441.62 1028.69C1441.93 1028.63 1442.25 1028.59 1442.58 1028.59L1496.63 1028.59L1595.46 954.91C1596.12 954.455 1596.78 954.174 1597.51 954.15Z" fill="#474961"/>
<path d="M1400.74 882.085C1420.14 890.136 1444.37 884.508 1473.44 865.199C1525.07 830.895 1520.23 818.213 1515.73 811.713C1515.73 811.613 1514.92 810.424 1514.92 810.324C1516.52 810.324 1514.7 809.024 1526.1 808.924C1537.5 808.824 1598.9 807.524 1622.4 773.624C1631.77 760.101 1632.5 745.124 1633.2 738.424C1635.8 712.357 1625.83 687.719 1603.29 664.509C1440.1 664.652 1358.37 664.657 1358.1 664.524C1357.7 664.324 1326.51 663.509 1306.34 677.666C1286.99 691.244 1269.77 720.021 1289.7 770.231L1292.62 839.737C1293.61 863.268 1311.86 882.435 1335.32 884.571C1345.78 885.524 1357.25 886 1369.74 886C1376.52 886 1385.93 884.901 1397.95 882.704C1398.89 882.531 1399.82 882.325 1400.74 882.085V882.085Z" fill="#3ABF7C"/>
<path opacity="0.176986" d="M1401.29 881.796C1397.57 880.293 1394.03 878.291 1390.67 875.79C1329.24 818.332 1296.56 785.178 1292.63 776.329C1291.6 774.031 1290.65 771.774 1289.78 769.559L1292.72 839.568C1293.71 863.099 1311.96 882.266 1335.42 884.402C1345.88 885.355 1357.35 885.831 1369.84 885.831C1376.62 885.831 1386.03 884.732 1398.05 882.535C1399.15 882.334 1400.23 882.087 1401.29 881.796H1401.29Z" fill="#444444"/>
<path d="M1469.57 743.621C1474.5 751.084 1479.7 758.335 1492.31 775.594C1504.97 792.91 1510.19 800.184 1515.17 807.721C1515.78 808.642 1515.52 809.883 1514.6 810.492C1513.68 811.101 1512.44 810.848 1511.83 809.927C1506.9 802.464 1501.7 795.213 1489.09 777.954C1476.43 760.638 1471.21 753.364 1466.23 745.827C1465.62 744.905 1465.88 743.665 1466.8 743.056C1467.72 742.446 1468.96 742.699 1469.57 743.621Z" fill="#482D1F"/>
<path d="M1602.73 527.62C1601.49 524.396 1599.75 520.987 1597.52 517.393C1586.61 497.082 1578.46 489.381 1568.24 485.998C1558.18 482.666 1546.79 481 1534.06 481C1504.97 481 1484.55 507.957 1485.49 538.439L1496.17 665.893C1543.02 669.042 1580.92 668.411 1609.86 664C1638.8 659.589 1650.23 651.132 1644.17 638.627L1615.56 556C1610.8 544.89 1606.58 535.524 1602.73 527.62L1602.73 527.62Z" fill="#A339FF"/>
<path d="M1510.47 835.542C1503.9 842.963 1492.57 852.485 1473.73 864.849C1462.14 872.458 1451.31 877.918 1441.26 881.229L1500.39 947.62L1561.49 902.92L1510.47 835.542ZM1402.18 882.01C1401.78 881.858 1401.39 881.701 1400.99 881.539C1400.07 881.778 1399.13 881.984 1398.18 882.155C1386.16 884.325 1376.75 885.41 1369.97 885.41C1357.47 885.41 1345.99 884.939 1335.53 883.998C1329.82 883.485 1324.42 881.963 1319.5 879.614L1324.83 965.747H1400.03L1402.18 882.01ZM1552.05 444.516C1555.6 441.743 1558.11 437.022 1557.39 431.65C1556.73 426.47 1553.39 420.681 1548.83 419.131C1544.19 417.554 1537.81 420.87 1538.25 418.509L1543.52 393.452C1543.79 391.871 1542.81 390.312 1541.25 389.952C1537.72 389.239 1534.25 389.157 1530.75 387.425C1530.36 387.335 1530 387.148 1529.61 387.058C1526.38 385.903 1508.43 379.193 1495.29 390.322C1494.17 391.192 1493.07 392.376 1491.96 393.657C1489.32 396.64 1487.64 400.358 1486.93 404.3L1483.69 421.921C1483.48 423.72 1483.17 425.497 1483.15 427.34C1482.47 449.864 1488.58 466.976 1496.63 469.45C1497.58 469.773 1502.82 471.085 1509.34 470.846C1509.97 470.786 1509.41 470.966 1518.36 469.542C1520.03 469.304 1521.54 469.071 1522.9 468.846L1523.49 482.655C1526.69 481.936 1530.06 481.511 1533.57 481.41C1540.31 481.41 1546.7 481.847 1552.74 482.72L1552.05 444.516ZM1492.03 614.521C1492.48 614.82 1492.93 615.118 1493.38 615.417C1505.1 623.203 1510.82 625.512 1515.76 625.83C1536.95 627.218 1546.72 609.179 1563.34 586.312C1568.68 578.965 1573.2 572.547 1576.92 567.057C1576.91 567.058 1576.89 567.059 1576.87 567.06C1566.22 564.978 1555.44 557.167 1544.54 543.624C1539.05 536.806 1534.76 529.91 1531.67 522.935C1518.5 543.534 1511.53 554.306 1510.76 555.25C1491.95 546.184 1419.02 503.34 1384.93 478.701C1383.15 476.719 1368.18 463.59 1340.04 439.314C1332.19 448.25 1347.05 463.879 1353.89 470.302C1355.53 472.973 1345.24 486.894 1346.88 489.565C1345.84 498.754 1380.3 524.909 1391.21 534.685C1394.57 537.672 1396.56 539.498 1401.32 543.431C1427.19 565.215 1449.34 584.404 1476.61 603.865L1469.86 621.373L1400.42 628.547C1381.46 624.922 1368.1 623.443 1360.33 624.112C1347.05 625.256 1313.57 637.335 1324.5 645.11C1331.79 650.294 1347.74 656.861 1372.35 664.811C1446.35 666.232 1487.62 666.638 1496.17 666.028L1492.03 614.521V614.521Z" fill="#F2A98A"/>
<path d="M1529.87 430.875L1531.2 428.434C1531.2 428.434 1533.03 425.46 1536.65 423.444C1536.97 423.287 1539.26 422.094 1541.96 422.272C1546.77 422.544 1551.19 427.003 1552.29 432.105C1553.56 437.434 1551.24 442.46 1547.78 445.508C1545.62 447.419 1543.2 448.264 1541.37 448.657C1544.25 451.875 1547.79 455.695 1551.98 460.117L1552.28 477.399C1562.43 479.169 1570.54 477.304 1576.62 471.801C1586.48 462.875 1582.41 452.399 1577.15 447.256C1575.95 446.081 1573.86 444.207 1571.29 442.059C1573.2 439.477 1575.03 436.362 1576.45 432.665C1577.69 429.053 1582.25 416.866 1576.35 405.547C1574.31 401.485 1571.48 399.086 1570.27 398.089C1563.62 392.654 1557.42 393.276 1542.68 389.564C1539.58 388.747 1535.03 387.592 1529.71 385.748C1529.29 385.755 1528.93 385.568 1528.54 385.478C1525.31 384.323 1507.69 379.33 1495.24 390.107C1495.2 390.302 1493.3 391.403 1493.33 391.718C1493.33 391.718 1495.83 408.264 1525.22 412.074C1525.22 412.074 1527.33 422.779 1529.87 430.875ZM1482.98 414.843C1484.78 415.531 1487.85 416.49 1490.79 416.094C1495.39 415.64 1491.48 412.356 1487.43 411.7C1485.46 411.382 1483.78 412.048 1482.73 412.643C1481.9 413.182 1482.05 414.439 1482.98 414.843ZM1500.74 419.047C1502.63 419.756 1505.7 420.715 1508.74 420.34C1513.32 419.983 1509.43 416.602 1505.38 415.945C1503.31 415.607 1501.63 416.273 1500.59 416.868C1499.66 417.387 1499.8 418.644 1500.74 419.047Z" fill="#DE6903"/>
<path d="M1523.11 477.058L1534.4 465.867L1522.7 468.404L1523.11 477.058Z" fill="#482D1F"/>
<path d="M1488.82 424.107C1488.96 422.898 1488.24 421.757 1487.09 421.426C1486.32 421.206 1485.54 421.398 1484.86 422.661C1483.31 425.544 1485.02 430.82 1486.77 429.448C1488.06 428.57 1488.54 425.796 1488.82 424.107ZM1504.99 427.961C1505.13 426.752 1504.42 425.612 1503.26 425.281C1502.49 425.06 1501.71 425.252 1501.04 426.515C1499.48 429.398 1501.19 434.674 1502.94 433.302C1504.23 432.425 1504.81 429.678 1504.99 427.961Z" fill="#482D1F"/>
<path d="M1495.47 448.349C1496.19 448.298 1497.98 448.065 1498.5 447.051C1498.54 446.856 1498.7 446.583 1498.65 446.367C1498.38 445.697 1497.05 445.72 1495.25 445.541C1492.05 445.169 1489.57 444.335 1489.57 444.335C1489.57 444.335 1489.94 446.458 1490.32 447.051C1490.97 448.824 1494.33 448.413 1495.47 448.349Z" fill="#482D1F"/>
<path d="M1491.01 428.339L1491.04 428.198L1491.02 428.267L1491.01 428.339ZM1487.64 438.414L1487.62 438.522C1487.39 439.59 1487.91 440.736 1488.94 441.14C1489.13 441.201 1489.23 441.232 1489.34 441.262C1490.36 441.549 1491.1 441.717 1493.77 442.284C1494.31 442.398 1494.84 442.053 1494.95 441.513C1495.07 440.973 1494.72 440.442 1494.18 440.327C1491.57 439.771 1490.85 439.608 1489.88 439.337C1489.78 439.309 1489.68 439.28 1489.58 439.25C1489.61 439.255 1489.55 439.124 1489.57 438.977L1492.94 428.829L1492.98 428.688L1494.01 422.875C1494.1 422.332 1493.74 421.813 1493.2 421.716C1492.65 421.62 1492.13 421.982 1492.04 422.526L1491.02 428.267L1487.64 438.414Z" fill="#482D1F"/>
<path opacity="0.2" d="M1491.84 613.491C1486.59 610.018 1481.55 606.569 1476.68 603.129L1469.85 620.963L1400.42 628.137C1381.47 624.519 1368.1 623.04 1360.33 623.702C1347.03 624.833 1313.55 637.007 1324.5 644.7C1331.8 649.829 1347.82 656.41 1372.57 664.445C1455.13 666.138 1496.33 666.491 1496.17 665.504C1496.16 665.438 1496.15 665.312 1496.14 665.127C1496.1 665.125 1496.07 665.123 1496.03 665.121L1491.84 613.491Z" fill="#8C2A00"/>
<path d="M1575.8 566.031C1581.88 558.699 1586.93 552.282 1590.94 546.782C1591.43 546.113 1592.37 545.966 1593.03 546.454C1593.7 546.942 1593.85 547.88 1593.36 548.55C1589.31 554.105 1584.23 560.569 1578.11 567.946C1577.58 568.583 1576.64 568.672 1576 568.143C1575.36 567.614 1575.28 566.668 1575.8 566.031Z" fill="#482D1F"/>
</g>
<path d="M100.834 820.543V820.73C100.834 823.13 102.934 825.13 105.334 825.13H180.835L154.234 873.93C135.234 908.73 116.334 943.43 97.4339 978.23L66.1339 1035.63C65.0339 1037.63 65.9339 1040.23 68.0339 1041.43L68.4339 1041.63C70.5339 1042.83 73.2339 1042.13 74.2339 1040.23L191.334 825.13H269.334L386.434 1040.23C387.434 1042.13 390.134 1042.73 392.234 1041.63L392.634 1041.43C394.734 1040.23 395.634 1037.63 394.534 1035.63L363.234 978.23C344.234 943.43 325.334 908.73 306.434 873.93L279.832 825.13H379.934C382.434 825.13 384.434 823.13 384.434 820.73V820.23C384.434 817.83 382.334 815.83 379.934 815.83H311.934C267.634 815.83 223.234 815.83 178.834 815.83H109.663L101.234 747.63C95.4339 701.23 89.7339 654.73 83.9339 608.23L74.4339 531.43C74.1339 528.73 71.8339 526.73 69.3339 527.03L68.8339 527.13C66.4339 527.43 64.7339 529.93 65.0339 532.43L100.734 820.03C100.76 820.205 100.793 820.376 100.834 820.543Z" fill="#D8DEED"/>
<path d="M573.499 432.1C573.502 432.073 573.503 432.046 573.503 432.019C573.503 428.695 554.562 426 531.601 426C508.641 426 490.364 428.695 490.364 432.019C490.364 432.046 490.365 432.073 490.368 432.1H490.249L462.311 518.561H602L573.545 432.1H573.499Z" fill="#FFCB3D"/>
<path d="M575.357 437.606L580.133 452.119L718.013 483.985L672.937 661.475H613.288C605.26 661.475 598.752 667.983 598.752 676.011V688.546C598.752 689.651 599.648 690.546 600.752 690.546H701.519C702.623 690.546 703.519 689.651 703.519 688.546V676.011C703.519 667.983 697.011 661.475 688.983 661.475H686.426L733.455 476.298C733.459 476.283 733.462 476.269 733.466 476.255C733.721 475.15 733.032 474.047 731.927 473.792L575.357 437.606ZM532.156 524.056C570.73 524.056 602 521.453 602 518.242C602 515.03 570.73 512.427 532.156 512.427C493.582 512.427 462.311 515.03 462.311 518.242C462.311 521.453 493.582 524.056 532.156 524.056Z" fill="#474961"/>
<g clip-path="url(#clip2)">
<path d="M129.192 1069.33C126.592 1069.33 124.592 1067.6 124.692 1065.52V1064.14C124.692 1062.06 126.792 1060.33 129.192 1060.33H231.692C234.192 1060.33 236.192 1062.06 236.192 1064.14V1065.52C236.192 1067.6 234.092 1069.33 231.692 1069.33H129.192ZM262.792 1060.33H421.792C424.277 1060.33 426.292 1062.35 426.292 1064.83C426.292 1067.32 424.277 1069.33 421.792 1069.33H262.792C260.306 1069.33 258.292 1067.32 258.292 1064.83C258.292 1062.35 260.306 1060.33 262.792 1060.33Z" fill="#DE3190"/>
<path d="M256.975 824.876L248.432 829.406L248.307 833.345C248.066 843.455 247.681 852.341 247.159 860.177C246.778 866.339 241.556 936.181 239.666 961.809C239.272 967.62 235.149 972.681 229.309 974.463C220.501 977.225 214.855 978.824 191.797 980.405C190.301 980.545 188.799 980.508 187.397 980.468C164.948 979.482 153.642 976.707 151.106 975.74C147.862 974.533 146.141 973.978 144.389 972.544C138.212 967.661 138.324 959.575 138.118 956.596C136.896 936.938 133.535 882.844 131.577 837.842C129.783 837.202 128.093 836.288 126.636 834.984C120.647 829.588 112.343 823.359 107.799 812.75C94.9378 782.727 93.5646 749.216 103.679 712.214C111.597 695.092 116.921 685.798 119.649 684.332L329.093 698.638C331.022 698.596 332.954 698.554 334.892 698.512C360.192 698.057 380.692 717.803 380.092 741.916C380.092 742.098 380.092 742.189 380.092 742.371C378.492 817.167 359.792 923.72 358.492 959.753C358.392 961.118 357.992 964.121 355.892 967.306C349.392 977.042 334.192 974.858 298.692 975.677C268.492 976.405 256.292 978.589 250.092 970.582C246.692 966.214 246.792 961.209 246.892 958.935C249.323 914.045 252.844 868.739 256.975 824.876Z" fill="#3ABF7C"/>
<path opacity="0.176986" d="M257.334 824.841L248.799 829.366L251.084 757.279C251.043 753.327 250.695 729.445 230.267 714.948C215.386 704.478 197.772 704.379 186.064 704.342C179.436 704.311 155.795 703.887 146.463 714.948C130.428 733.954 129.02 769.59 129.326 774.633C129.885 784.716 130.543 800.418 131.192 818.667C131.409 824.779 131.668 831.228 131.958 837.873C130.13 837.232 128.409 836.31 126.927 834.984C120.939 829.588 112.635 823.359 108.09 812.75C95.2293 782.727 93.8561 749.216 103.97 712.214C111.889 695.092 117.212 685.798 119.94 684.332L327.494 698.509C321.721 698.635 315.966 698.76 310.163 698.886C287.663 699.432 268.963 715.72 266.563 737.012C263.302 765.204 260.173 794.682 257.334 824.841Z" fill="#444444"/>
<path d="M233.564 1060.85C232.899 1060.52 232.125 1060.33 231.295 1060.33H130.022L153.591 998.941L224.501 1002.5C224.501 1002.5 227.814 1018.87 233.564 1060.85ZM260.682 1060.67L260.001 996.501L335.501 997.501L353.591 1010.84C357.691 1015.04 362.091 1018.74 366.891 1022.04C378.491 1029.94 384.591 1029.84 402.291 1038.64C407.191 1040.94 411.691 1043.54 416.191 1046.44C418.391 1048.54 422.191 1052.54 423.391 1057.34C423.591 1058.04 423.591 1058.84 423.691 1059.64C423.691 1060.19 423.672 1060.61 423.634 1060.93C422.975 1060.55 422.21 1060.33 421.395 1060.33H262.395C261.788 1060.33 261.21 1060.45 260.682 1060.67Z" fill="#474961"/>
<path d="M262.668 587.922C260.994 621.98 257.217 668.818 253.795 677.911C248.608 691.691 149.116 681.881 135.868 678.867C127.587 676.994 119.863 654.671 118.435 647.195C117.222 641.178 110.494 634.457 125.169 580.975C118.742 579.308 113.477 577.903 110.62 577.173C99.0432 574.216 104.139 560.693 106.191 551.401C112.067 524.881 119.436 515.171 121.954 512.247C124.845 508.906 127.644 506.505 129.509 505.043C142.101 495.229 155.439 493.767 162.248 493.663C162.435 493.558 162.621 493.558 162.808 493.558L195.92 493.141C195.808 494.035 195.689 494.99 195.563 496C196.946 496.052 198.305 496.113 199.628 496.183C199.674 495.175 199.717 494.27 199.757 493.379L232.83 499.719C232.83 499.719 252.411 504.648 263.179 516.091C264.773 517.794 267.129 520.545 269.421 524.198C271.415 527.393 277.057 537.831 278.433 563.866C278.908 572.987 281.709 586.637 269.817 587.417C268.154 587.526 265.692 587.704 262.668 587.922Z" fill="#DE3190"/>
<path opacity="0.176986" d="M262.8 587.912C263.907 565.091 262.709 548.559 261.697 541.982C260.978 537.277 259.807 532.924 259.807 532.924C259.255 529.832 258.084 525.479 255.23 520.886C246.37 506.172 228.642 501.497 216.696 498.21C214.081 497.509 207.494 496.792 199.62 496.375C199.668 495.295 199.714 494.314 199.757 493.368L232.809 499.707C232.809 499.707 252.411 504.648 263.179 516.091C264.773 517.794 267.129 520.545 269.421 524.198C271.415 527.393 277.057 537.831 278.433 563.866C278.908 572.987 281.709 586.637 269.817 587.417C268.178 587.524 265.764 587.699 262.8 587.912Z" fill="#444444"/>
<path d="M310.825 554.809C318.379 547.472 332.027 536.336 351.769 521.399C357.827 522.106 357.387 526.908 350.448 535.805L310.825 554.809ZM179.667 592.63C179.337 593.39 178.453 593.738 177.693 593.408C176.934 593.078 176.586 592.194 176.916 591.434C178.852 586.982 179.63 584.494 181.13 577.995C181.316 577.188 182.122 576.685 182.929 576.871C183.736 577.057 184.239 577.862 184.053 578.67C182.515 585.335 181.683 587.994 179.667 592.63Z" fill="#482D1F"/>
<path d="M224.5 1002.5L153.585 998.939L158.172 977.49C164.115 978.604 173.65 979.867 187.312 980.468C188.715 980.507 190.217 980.544 191.713 980.405C209.341 979.195 216.793 977.976 223.26 976.234L224.5 1002.5ZM335.5 997.499L260 996.499C260 996.499 259.893 989.341 259.847 975.854C267.582 977.182 279.487 976.137 298.607 975.676C308.926 975.438 317.53 975.454 324.704 975.357L335.5 997.499ZM255.671 661.682L262.231 587.912C263.654 587.8 264.745 587.716 265.505 587.66C267.036 587.546 268.611 587.486 270.43 587.123C272.768 586.655 274.347 586.074 275.166 585.377L278.074 605.208L306.407 558.904C307.801 556.625 309.779 554.759 312.136 553.501L362.415 526.652C370.119 519.424 375.662 515.24 379.045 514.1C382.428 512.959 385.955 514.085 389.627 517.477L345.797 563.406C340.291 579.336 334.231 595.235 327.615 611.103C321.004 626.963 310.723 650.219 296.775 680.872C315.821 691.088 327.289 699.177 327.289 699.177C327.289 699.177 185.506 696.776 129.266 693.332C79.2305 690.267 103.357 597.358 109.29 576.893C109.595 576.995 109.913 577.088 110.244 577.172C120.601 579.819 162.62 591.492 176.832 592.289L163.189 639.932C196.706 641.711 228.853 650.983 255.671 661.682ZM217 495.999C219.481 496.685 222.48 497.297 225.157 498.249C222.931 503.69 219.835 506.879 215.868 507.814C209.917 509.217 195.676 509.217 186.313 505.194C180.071 502.512 175.372 498.601 172.215 493.463C175.841 493.395 179.246 493.338 182.431 493.292V456.186C179.915 453.237 177.711 450.424 176.415 447.813C174.23 443.487 174.536 432.573 175.486 427.37C175.801 425.235 191.191 410.072 200.1 424.946L199.264 399.322C199.224 397.719 200.406 396.311 202.108 396.262C205.603 396.057 209.081 395.652 212.797 394.524C213.195 394.489 213.585 394.354 213.984 394.32C217.345 393.724 236.294 391.163 247.294 404.455C248.295 405.572 249.205 406.797 250.042 408.33C251.859 411.885 252.905 415.809 252.955 419.82L253.111 437.674C253.069 439.485 252.927 441.304 252.677 443.033C250.886 455.837 247.101 466.508 242.687 473.419C239.428 478.623 235.687 481.761 232.209 482.165C231.222 482.352 225.834 482.723 219.392 481.38C218.972 481.279 219.083 481.367 216.457 480.487L217 495.999Z" fill="#DB9E75"/>
<path d="M164.551 640.363C165.375 640.285 166.107 640.89 166.185 641.715C166.263 642.54 165.657 643.271 164.832 643.349C164.638 643.368 164.256 643.411 163.716 643.483C162.806 643.605 161.789 643.765 160.694 643.97C157.568 644.552 154.444 645.365 151.542 646.44C149.828 647.075 148.244 647.784 146.814 648.57C146.088 648.969 145.176 648.705 144.777 647.979C144.378 647.253 144.643 646.341 145.369 645.942C146.935 645.08 148.654 644.311 150.499 643.627C153.578 642.486 156.862 641.632 160.144 641.02C161.292 640.806 162.359 640.638 163.318 640.509C163.655 640.464 163.956 640.427 164.216 640.398C164.376 640.38 164.488 640.368 164.551 640.363ZM276.9 604.316C277.355 603.624 278.285 603.431 278.977 603.886C279.669 604.341 279.862 605.271 279.407 605.963C279.365 606.026 279.365 606.026 279.168 606.327C278.974 606.623 278.748 606.968 278.494 607.356C277.768 608.465 276.959 609.701 276.09 611.035C273.605 614.845 271.129 618.667 268.829 622.251C268.592 622.62 268.592 622.62 268.355 622.989C264.853 628.453 265.512 626.913 263.848 629.707C263.424 630.419 262.503 630.652 261.791 630.228C261.08 629.804 260.846 628.884 261.27 628.172C262.956 625.342 262.311 626.86 265.829 621.37C266.067 621 266.067 621 266.304 620.63C268.609 617.04 271.089 613.212 273.577 609.397C274.447 608.061 275.257 606.823 275.984 605.712C276.239 605.323 276.465 604.978 276.66 604.681C276.858 604.38 276.858 604.38 276.9 604.316Z" fill="#482D1F"/>
<path d="M216.878 480.508L202.062 475.2L216.878 492.5L216.878 480.508Z" fill="#482D1F"/>
<path d="M201.668 434.137L201.42 432.293C201.42 432.293 200.707 428.741 197.903 425.373C197.686 425.191 195.801 423.148 193.115 422.278C188.276 420.895 182.283 423.527 179.271 428.107C176.068 432.804 176.582 438.682 178.867 442.999C181.152 447.316 185.021 449.086 186.368 449.57L192.335 450.895C188.017 459.024 184.189 466.289 183.291 466.289C181.647 466.289 175.219 458.677 171.002 452.922C168.947 450.091 161.935 443.376 159.837 432.016C159.393 429.366 158.11 422.253 160.1 414.708C147.417 406.848 138.469 393.314 137.069 377.307C134.71 350.348 154.653 326.581 181.612 324.222C208.57 321.864 232.337 341.806 234.696 368.765C235.473 377.652 233.827 386.192 230.306 393.733C237.315 395.34 244.781 398.923 248.903 405.851C246.911 407.271 244.505 408.447 241.76 409.189C234.293 411.047 227.687 410.119 223.68 409.064C216.736 416.899 209.684 424.643 202.741 432.478C202.398 432.989 202.039 433.544 201.668 434.137Z" fill="#482D1F"/>
<path fill-rule="evenodd" clip-rule="evenodd" d="M229.249 438.29C228.036 438.196 226.919 439.197 226.725 440.419C226.483 442.247 226.138 445.188 227.049 446.413C228.328 448.409 231.73 443.695 231.126 440.234C230.705 438.866 230.055 438.32 229.249 438.29ZM251.216 439.116C250.003 439.021 248.886 440.022 248.692 441.244C248.45 443.072 248.105 446.013 249.015 447.238C250.294 449.234 253.696 444.52 253.092 441.06C252.672 439.691 252.022 439.146 251.216 439.116Z" fill="#482D1F"/>
<path d="M241.276 442.668L242.247 452.622C242.25 452.659 242.112 452.824 242.064 452.828C241.519 452.876 240.959 452.889 240.083 452.881C239.912 452.879 239.734 452.877 239.478 452.874C239.155 452.869 238.978 452.866 238.808 452.864C238.228 452.857 237.748 452.853 237.235 452.853L237.231 452.853C236.682 452.854 236.235 453.301 236.235 453.854C236.235 454.406 236.683 454.854 237.236 454.853L237.239 454.853C237.738 454.853 238.21 454.857 238.782 454.864C238.95 454.866 239.126 454.869 239.45 454.873C239.709 454.877 239.89 454.879 240.064 454.881C241 454.89 241.616 454.875 242.239 454.821C243.386 454.72 244.339 453.585 244.238 452.437L243.266 442.474C243.213 441.925 242.724 441.522 242.174 441.576C241.624 441.63 241.222 442.119 241.276 442.668Z" fill="#482D1F"/>
<path d="M235.818 460.602C235.094 460.365 233.331 459.716 233.144 458.728C233.127 458.529 233.001 458.239 233.192 458.122C233.646 457.58 234.885 457.974 236.722 458.315C239.98 458.833 242.587 458.806 242.587 458.806C242.587 458.806 241.73 460.487 241.168 460.937C240.077 462.237 236.858 461.013 235.818 460.602Z" fill="#482D1F"/>
<path d="M211.174 437.995L205.18 436.716C204.37 436.543 203.853 435.746 204.026 434.936C204.199 434.126 204.996 433.609 205.806 433.782L212.252 435.158C214.399 430.933 218.612 427.878 223.681 427.434C231.494 426.751 238.381 432.53 239.065 440.342C239.081 440.529 239.094 440.715 239.103 440.901L242.145 441.007C242.946 434.495 248.205 429.203 255.003 428.609C262.815 427.925 269.703 433.704 270.386 441.517C271.07 449.33 265.29 456.217 257.478 456.901C249.67 457.584 242.786 451.812 242.095 444.007L238.932 443.896C237.904 450.145 232.755 455.149 226.156 455.726C218.344 456.409 211.456 450.63 210.773 442.818C210.627 441.151 210.775 439.527 211.174 437.995ZM214.39 437.753C213.847 439.243 213.614 440.872 213.761 442.556C214.3 448.718 219.733 453.276 225.895 452.737C232.057 452.198 236.615 446.766 236.076 440.604C235.537 434.442 230.104 429.883 223.942 430.423C219.712 430.793 216.237 433.47 214.649 437.106C214.644 437.137 214.638 437.168 214.632 437.2C214.588 437.405 214.504 437.591 214.39 437.753ZM245.04 442.879C245.044 443.161 245.058 443.445 245.083 443.731C245.622 449.893 251.054 454.451 257.216 453.912C263.378 453.373 267.937 447.941 267.398 441.778C266.858 435.616 261.426 431.058 255.264 431.597C249.591 432.094 245.278 436.737 245.049 442.279C245.069 442.386 245.078 442.497 245.074 442.61C245.071 442.702 245.059 442.792 245.04 442.879Z" fill="#482D1F"/>
<path opacity="0.2" d="M262.606 587.912L256.043 661.735C265.346 665.556 272.303 668.551 276.914 670.722C281.525 672.893 288.262 676.294 297.127 680.925C311.087 650.246 321.376 626.972 327.991 611.104C334.607 595.236 340.667 579.337 346.172 563.407L390.002 517.478C386.331 514.084 382.804 512.958 379.421 514.098C376.038 515.239 370.495 519.424 362.791 526.653L312.512 553.502C310.155 554.76 308.177 556.625 306.783 558.904L278.449 605.209L275.542 585.378C274.889 586.074 273.393 586.656 271.055 587.123C269.236 587.487 267.66 587.547 266.13 587.661C265.37 587.717 264.196 587.801 262.606 587.912Z" fill="#8C2A00"/>
</g>
<path d="M796.379 693H206.235C204.448 693 203 696.134 203 700C203 703.866 204.448 707 206.235 707H796.379C798.165 707 799.614 703.866 799.614 700C799.614 696.134 798.165 693 796.379 693Z" fill="#D8DEED"/>
<defs>
<clipPath id="clip0">
<path d="M1118 382H1852V1039H1118V382Z" fill="white"/>
</clipPath>
<clipPath id="clip1">
<path d="M1196 281H1718V1037H1196V281Z" fill="white"/>
</clipPath>
<clipPath id="clip2">
<path d="M0 313H522V1069H0V313Z" fill="white"/>
</clipPath>
</defs>
</svg>
